<?xml version="1.0" encoding="UTF-8" standalone="no"?>
<!-- Created with Inkscape (http://www.inkscape.org/) -->
<svg xmlns:dc="http://purl.org/dc/elements/1.1/" xmlns:cc="http://creativecommons.org/ns#" xmlns:rdf="http://www.w3.org/1999/02/22-rdf-syntax-ns#" xmlns:svg="http://www.w3.org/2000/svg" xmlns="http://www.w3.org/2000/svg" version="1.1" width="799.99603" height="105.04403" id="svg63308">
  <defs id="defs63310"/>
  <metadata id="metadata63313">
    <rdf:RDF>
      <cc:Work rdf:about="">
        <dc:format>image/svg+xml</dc:format>
        <dc:type rdf:resource="http://purl.org/dc/dcmitype/StillImage"/>
        <dc:title/>
      </cc:Work>
    </rdf:RDF>
  </metadata>
  <g transform="translate(-57.144852,-565.55445)" id="layer1">
    <path d="m 822.21319,570.55445 c -4.9172,0 -9.58352,1.15012 -13.83151,3.45787 -4.25639,2.30345 -7.86372,5.62254 -10.7389,9.83791 -3.5268,5.15192 -5.30858,10.95014 -5.30858,17.24068 0,6.352 1.79733,12.16557 5.33293,17.26502 6.04119,8.7741 14.31399,13.22273 24.59476,13.22273 4.96879,0 9.66498,-1.15671 13.90456,-3.43353 4.24798,-2.2729 7.83385,-5.54464 10.66585,-9.71615 3.52717,-5.15192 5.30856,-10.99468 5.30856,-17.33807 0,-6.29054 -1.80323,-12.10464 -5.38162,-17.31373 -2.86638,-4.1672 -6.4997,-7.46141 -10.7389,-9.76486 -4.24798,-2.30775 -8.88959,-3.45787 -13.80715,-3.45787 z m -125.60372,0.1461 c -9.70596,0 -18.47699,2.67225 -26.08018,7.93851 l -0.82794,0.56008 5.91735,10.30057 0.901,-0.51137 c 5.93876,-3.35866 12.23813,-5.06506 18.7261,-5.06506 4.26518,0 7.59126,0.56114 9.95966,1.65589 2.11998,0.98434 3.14131,2.16905 3.14131,3.62833 0,3.29718 -3.54005,4.96765 -10.56844,4.96765 l -12.02951,0 0,12.90616 10.13011,0 c 5.4492,0 9.35416,0.39798 11.61555,1.19321 2.92639,0.98513 3.26306,2.66504 3.26306,3.8475 0,4.28192 -4.76848,6.47743 -14.14807,6.47743 -9.40594,0 -17.05027,-3.02907 -22.74406,-8.98561 l -0.73054,-0.75488 -8.9369,9.0343 0.75489,0.75489 c 8.73598,8.47065 19.29003,12.76006 31.3644,12.76006 9.01956,0 16.09793,-1.62781 21.01512,-4.84591 5.06357,-3.31401 7.62194,-8.0033 7.62194,-13.92891 0,-5.77644 -2.73829,-10.1485 -8.15767,-13.02791 3.69458,-2.94088 5.55209,-6.84146 5.55209,-11.61554 0,-5.18716 -2.33888,-9.40229 -6.96446,-12.54089 -4.62558,-3.14292 -10.94842,-4.7485 -18.77481,-4.7485 z m 62.99667,0 c -8.40157,0 -14.99989,1.54514 -19.65146,4.57804 -4.79718,3.1343 -7.23232,7.54888 -7.23232,13.10096 0,4.07949 1.83059,7.68612 5.50338,10.76326 -6.05877,3.32772 -9.13171,7.92416 -9.13171,13.66104 0,5.72789 2.74964,10.32282 8.18202,13.6854 5.27797,3.26587 12.7356,4.91896 22.18398,4.91896 9.48315,0 17.03792,-1.64613 22.42749,-4.94331 5.40639,-3.34026 8.15767,-7.93747 8.15767,-13.66105 0,-5.73219 -3.04859,-10.33762 -9.10737,-13.66104 3.66439,-3.0419 5.50339,-6.63991 5.50339,-10.76326 0,-5.54737 -2.41243,-9.97135 -7.18362,-13.10096 -4.62559,-3.03329 -11.25027,-4.57804 -19.65145,-4.57804 z m -133.85878,0.9497 -29.00233,58.83261 17.21632,0 4.33453,-9.47264 19.79756,0 -6.13652,-12.88181 -7.8411,0 7.35408,-16.09617 18.55565,38.45062 17.26503,0 -30.14684,-58.83261 -11.39638,0 z m 196.51453,11.95646 c 4.80559,0 8.63302,1.58638 11.6886,4.87025 3.03798,3.25725 4.57802,7.50156 4.57802,12.61395 0,5.00666 -1.54004,9.19204 -4.57802,12.41913 -3.05558,3.26155 -6.88012,4.84589 -11.7373,4.84589 -4.81439,0 -8.63379,-1.58231 -11.6886,-4.82155 -3.02919,-3.19185 -4.57804,-7.38396 -4.57804,-12.44347 0,-5.16524 1.55763,-9.41159 4.57804,-12.6383 3.06398,-3.25293 6.88011,-4.8459 11.7373,-4.8459 z m -64.40904,0.17047 c 0.49424,-0.015 1.0074,0 1.53412,0 8.66758,0 13.07663,1.90412 13.07663,5.69819 0,3.32303 -3.60985,5.01635 -10.6902,5.01635 l -4.18842,0 c -7.23437,0 -10.885,-1.69332 -10.885,-5.01635 0,-3.55694 3.7393,-5.47327 11.15287,-5.69819 z m 1.89939,21.96481 c 5.66398,0 9.8834,0.56113 12.4922,1.65588 2.37718,0.99805 3.48222,2.49306 3.48222,4.6998 0,1.76272 -1.22303,3.18018 -3.67704,4.31016 -2.88358,1.2964 -7.03245,1.9481 -12.37043,1.9481 -5.40638,0 -9.59555,-0.64888 -12.41913,-1.92374 -2.5744,-1.16015 -3.82315,-2.5718 -3.82315,-4.33452 0,-4.21575 5.49377,-6.35568 16.31533,-6.35568 z" id="path63333" style="fill:#1e3174;fill-opacity:1;fill-rule:nonzero;stroke:none"/>
    <path d="m 351.68539,644.26943 -31.57453,0 0,-17.718 31.5852,0 c 5.18419,0.0769 9.38702,3.96303 9.38702,8.811 0,4.85352 -4.21349,8.907 -9.39769,8.907 m -31.56919,-51.95931 31.00917,0 c 4.25617,0.047 7.85097,3.32813 7.85097,7.60562 0,4.28305 -3.77082,7.69097 -8.02698,7.65384 l -30.83316,0 0,-15.25946 z m 49.40454,24.77961 c 5.82955,-4.11194 8.03763,-10.91753 8.03763,-18.41136 0,-14.08565 -11.85111,-25.37142 -26.41167,-25.37142 l -52.67932,0 0,89.94475 54.76473,0 -0.004,0.0427 c 15.36592,0 28.17173,-11.87246 28.17173,-26.39034 0,-9.47791 -5.69621,-16.4755 -11.87778,-19.80875 m 81.25108,-43.991 0.005,50.5777 c 0,15.45147 -9.02968,21.94771 -20.13943,21.94771 -11.11509,0 -20.07542,-6.46425 -20.07542,-21.9315 l 0,-50.59391 -22.41686,0 0,50.72704 c 0,32.34256 19.00339,41.76713 42.50295,41.76713 23.49956,0 42.54027,-9.42457 42.54027,-41.76713 l -0.009,-50.72747 -22.40618,0 z m 78.67477,35.05711 c -18.13935,-3.9417 -24.26759,-5.68554 -24.26759,-11.44577 0,-5.07752 6.57092,-7.62696 16.94464,-7.62696 9.79238,0 21.61683,4.17084 28.57175,8.33099 l 7.07228,-18.3047 c -10.5284,-4.36838 -23.17954,-8.56053 -39.92152,-8.56053 -21.94217,0 -35.65469,12.82737 -35.65469,28.50796 0,15.70193 11.2911,22.60865 33.66528,27.34482 17.36067,3.67502 22.0595,5.8669 22.0595,11.26443 0,5.39754 -6.97092,7.39228 -16.36862,7.39228 -12.17112,0 -23.88357,-4.05349 -34.92399,-8.80034 l -6.67758,17.85157 c 13.2005,6.11734 26.90235,11.01908 43.22297,11.01908 27.21703,0 38.31079,-13.0087 38.31079,-28.16107 0,-13.47805 -9.33902,-23.87845 -32.03322,-28.81176 m -421.86133,-34.8442 -45.441728,89.93408 26.98235,0 6.78959,-14.45943 30.998518,0 -9.63237,-19.70208 -12.2458,0 11.52044,-24.59826 29.03577,58.76489 27.05703,0 -47.20713,-89.94987 -17.85667,0 z m 182.56693,29.90534 c 0,-16.39016 -11.22177,-29.68133 -34.33198,-29.68133 l -46.66844,0 0,89.95029 21.63816,0 -0.0128,-70.9467 26.53435,0 c 7.8403,0 11.10442,4.85352 11.10442,10.63507 0,5.78157 -3.42413,10.42174 -11.26976,10.42174 l -18.5607,0 28.08106,49.88989 22.19818,0 c 0,0 -19.2114,-32.60369 -19.11006,-32.62502 13.87786,-4.3095 20.39544,-14.83278 20.39544,-27.63839 m -112.87361,60.07695 22.36884,0 0,-89.93963 -22.36884,0 0,89.93963 z" id="path63335" style="fill:#7093cb;fill-opacity:1;fill-rule:nonzero;stroke:none"/>
  </g>
</svg>